<svg width="36" height="36" viewBox="0 0 36 36" fill="none" xmlns="http://www.w3.org/2000/svg">
<rect width="36" height="36" rx="18" fill="#D9D4F7" fill-opacity="0.1"/>
<path d="M12.5 12.7936C12.5 12.1632 12.5825 10.7134 14.4216 9.04549C15.5135 8.0552 16.8249 7.76839 18 7.75074C19.0731 7.73624 20.0321 7.93606 20.6056 8.24368C21.5859 8.77192 23.5 10.0578 23.5 12.7936C23.5 15.6724 21.8282 16.9773 19.9279 18.4151C18.0275 19.8529 17.5417 20.7588 17.5417 22.375" stroke="#CCCEFF" stroke-width="2" stroke-miterlimit="10" stroke-linecap="square"/>
<path d="M18.375 26.875H16.625C16.556 26.875 16.5 26.938 16.5 27.0156V28.9844C16.5 29.062 16.556 29.125 16.625 29.125H18.375C18.444 29.125 18.5 29.062 18.5 28.9844V27.0156C18.5 26.938 18.444 26.875 18.375 26.875Z" fill="#CCCEFF"/>
</svg>
