<svg width="15" height="14" viewBox="0 0 15 14" fill="none" xmlns="http://www.w3.org/2000/svg">
<path fill-rule="evenodd" clip-rule="evenodd" d="M2.25 2.1875C2.25 2.07147 2.29609 1.96019 2.37814 1.87814C2.46019 1.79609 2.57147 1.75 2.6875 1.75H12.3125C12.4285 1.75 12.5398 1.79609 12.6219 1.87814C12.7039 1.96019 12.75 2.07147 12.75 2.1875V6.125H11.875V2.625H3.125V11.375H4.87937V12.25H2.6875C2.57147 12.25 2.46019 12.2039 2.37814 12.1219C2.29609 12.0398 2.25 11.9285 2.25 11.8125V2.1875ZM12.7448 8.1655L8.78975 12.1196C8.70774 12.2014 8.59667 12.2473 8.48088 12.2473C8.36508 12.2473 8.25401 12.2014 8.172 12.1196L5.97575 9.92337L6.5935 9.30388L8.48088 11.1912L12.1261 7.546L12.7448 8.1655Z" fill="#582C0E"/>
</svg>
