<svg width="36" height="36" viewBox="0 0 36 36" fill="none" xmlns="http://www.w3.org/2000/svg">
<rect width="36" height="36" rx="18" fill="#D9D4F7" fill-opacity="0.1"/>
<path d="M10 14.2512C10 12.1295 10.8429 10.0947 12.3431 8.59437C13.8434 7.09408 15.8783 6.25122 18 6.25122C20.1217 6.25122 22.1566 7.09408 23.6569 8.59437C25.1571 10.0947 26 12.1295 26 14.2512V18.9482L28 21.9482V26.2512H22.389C22.1615 27.2449 21.6036 28.132 20.8064 28.7674C20.0091 29.4027 19.0199 29.7487 18.0005 29.7487C16.9811 29.7487 15.9919 29.4027 15.1946 28.7674C14.3974 28.132 13.8395 27.2449 13.612 26.2512H8V21.9482L10 18.9482V14.2512ZM15.708 26.2512C15.9024 26.6975 16.2228 27.0773 16.6299 27.344C17.0371 27.6108 17.5133 27.7529 18 27.7529C18.4867 27.7529 18.9629 27.6108 19.3701 27.344C19.7772 27.0773 20.0976 26.6975 20.292 26.2512H15.708ZM18 8.25122C16.4087 8.25122 14.8826 8.88336 13.7574 10.0086C12.6321 11.1338 12 12.6599 12 14.2512V19.5542L10 22.5542V24.2512H26V22.5542L24 19.5542V14.2512C24 12.6599 23.3679 11.1338 22.2426 10.0086C21.1174 8.88336 19.5913 8.25122 18 8.25122Z" fill="#CCCEFF"/>
</svg>
