<svg width="16" height="16" viewBox="0 0 16 16" fill="none" xmlns="http://www.w3.org/2000/svg">
<path d="M7.66671 2C9.34641 2 10.9573 2.66726 12.1451 3.85499C13.3328 5.04272 14 6.65363 14 8.33333C14 10.013 13.3328 11.6239 12.1451 12.8117C10.9573 13.9994 9.34641 14.6667 7.66671 14.6667C5.987 14.6667 4.37609 13.9994 3.18836 12.8117C2.00063 11.6239 1.33337 10.013 1.33337 8.33333C1.33337 6.65363 2.00063 5.04272 3.18836 3.85499C4.37609 2.66726 5.987 2 7.66671 2ZM7.66671 2.66667C6.16381 2.66667 4.72248 3.26369 3.65977 4.3264C2.59706 5.3891 2.00004 6.83044 2.00004 8.33333C2.00004 9.83623 2.59706 11.2776 3.65977 12.3403C4.72248 13.403 6.16381 14 7.66671 14C8.41086 14 9.14774 13.8534 9.83525 13.5687C10.5228 13.2839 11.1474 12.8665 11.6736 12.3403C12.1998 11.8141 12.6172 11.1894 12.902 10.5019C13.1868 9.81436 13.3334 9.07749 13.3334 8.33333C13.3334 6.83044 12.7364 5.3891 11.6736 4.3264C10.6109 3.26369 9.1696 2.66667 7.66671 2.66667ZM7.33337 4.66667H8.00004V8.28L11.1334 10.0867L10.8 10.6667L7.33337 8.66667V4.66667Z" fill="#999CFF" fill-opacity="0.8"/>
</svg>
