<svg width="28" height="28" viewBox="0 0 28 28" fill="none" xmlns="http://www.w3.org/2000/svg">
<path d="M23.387 0.26201C23.5926 0.347164 23.7683 0.491378 23.892 0.67641C24.0156 0.861442 24.0815 1.07898 24.0815 1.30151V7.66601C24.0815 7.96438 23.963 8.25053 23.752 8.4615C23.541 8.67248 23.2549 8.79101 22.9565 8.79101H16.592C16.3697 8.79081 16.1523 8.72473 15.9675 8.6011C15.7827 8.47747 15.6387 8.30184 15.5536 8.0964C15.4685 7.89095 15.4462 7.6649 15.4896 7.44681C15.5329 7.22871 15.6399 7.02834 15.797 6.87101L18.2 4.46501C15.9927 3.54067 13.5421 3.37022 11.2281 3.98006C8.91406 4.5899 6.86578 5.94598 5.40072 7.83813C3.93565 9.73028 3.13561 12.0528 3.12457 14.4459C3.11354 16.8389 3.89214 19.1687 5.33969 21.0743C6.78725 22.9799 8.82293 24.3548 11.1312 24.986C13.4396 25.6171 15.8916 25.4692 18.1074 24.5653C20.3231 23.6614 22.1788 22.0518 23.3869 19.9861C24.595 17.9204 25.088 15.5139 24.7895 13.1395C24.7586 12.8466 24.8438 12.5533 25.0267 12.3225C25.2097 12.0918 25.4758 11.9419 25.768 11.9052C26.0602 11.8685 26.3552 11.9478 26.5896 12.1261C26.8239 12.3045 26.979 12.5676 27.0215 12.859C27.3866 15.7633 26.7704 18.7062 25.2709 21.2201C23.7714 23.7339 21.4745 25.6743 18.7455 26.7329C16.0165 27.7914 13.012 27.9073 10.2095 27.0622C7.40706 26.2171 4.96754 24.4594 3.27876 22.0686C1.58997 19.6778 0.748852 16.791 0.889106 13.8673C1.02936 10.9435 2.14294 8.15057 4.05282 5.93238C5.9627 3.7142 8.55926 2.1981 11.4297 1.6251C14.3002 1.05211 17.2799 1.4551 19.895 2.77001L22.16 0.50501C22.3174 0.347925 22.5178 0.241005 22.7359 0.197755C22.9541 0.154505 23.1816 0.176864 23.387 0.26201Z" fill="#CCCEFF"/>
</svg>
