<svg width="14" height="14" viewBox="0 0 14 14" fill="none" xmlns="http://www.w3.org/2000/svg">
<path d="M6.71729 4.5023C6.05424 4.5023 5.41836 4.76569 4.94952 5.23454C4.48068 5.70338 4.21729 6.33926 4.21729 7.0023C4.21729 7.66534 4.48068 8.30123 4.94952 8.77007C5.41836 9.23891 6.05424 9.5023 6.71729 9.5023C7.38033 9.5023 8.01621 9.23891 8.48505 8.77007C8.95389 8.30123 9.21729 7.66534 9.21729 7.0023C9.21729 6.33926 8.95389 5.70338 8.48505 5.23454C8.01621 4.76569 7.38033 4.5023 6.71729 4.5023ZM5.21729 7.0023C5.21729 6.60448 5.37532 6.22295 5.65662 5.94164C5.93793 5.66034 6.31946 5.5023 6.71729 5.5023C7.11511 5.5023 7.49664 5.66034 7.77795 5.94164C8.05925 6.22295 8.21729 6.60448 8.21729 7.0023C8.21729 7.40013 8.05925 7.78166 7.77795 8.06296C7.49664 8.34427 7.11511 8.5023 6.71729 8.5023C6.31946 8.5023 5.93793 8.34427 5.65662 8.06296C5.37532 7.78166 5.21729 7.40013 5.21729 7.0023ZM5.13729 13.8163C5.65479 13.9398 6.18529 14.0023 6.71729 14.0023C7.24881 14.0017 7.77842 13.9388 8.29529 13.8148C8.44374 13.7797 8.57771 13.6995 8.67885 13.5853C8.77999 13.4711 8.84336 13.3284 8.86028 13.1768L8.97729 12.1118C8.98846 11.9956 9.02717 11.8837 9.09021 11.7854C9.15324 11.6871 9.23878 11.6053 9.33975 11.5466C9.44072 11.488 9.5542 11.4542 9.67081 11.4482C9.78742 11.4421 9.90379 11.4639 10.0103 11.5118L10.9878 11.9398C11.1277 12.0015 11.2834 12.0181 11.4331 11.9872C11.5829 11.9563 11.7193 11.8794 11.8233 11.7673C12.5455 10.989 13.0846 10.0592 13.4013 9.0458C13.4465 8.89921 13.4451 8.74217 13.3972 8.59643C13.3492 8.45069 13.2572 8.32344 13.1338 8.2323L12.2693 7.5948C12.1748 7.52606 12.0979 7.4359 12.0449 7.33172C11.9919 7.22754 11.9644 7.11229 11.9645 6.99542C11.9647 6.87855 11.9925 6.76337 12.0457 6.65932C12.099 6.55527 12.1761 6.46531 12.2708 6.3968L13.1308 5.7618C13.2553 5.67119 13.3481 5.54378 13.3963 5.39755C13.4445 5.25132 13.4455 5.09366 13.3993 4.9468C13.0833 3.93301 12.5439 3.00301 11.8208 2.2253C11.7162 2.11352 11.5796 2.03691 11.4297 2.00602C11.2798 1.97512 11.124 1.99147 10.9838 2.0528L10.0108 2.4808C9.90414 2.52729 9.78805 2.54803 9.6719 2.54135C9.55576 2.53467 9.44281 2.50075 9.3422 2.44234C9.24159 2.38393 9.15613 2.30267 9.09274 2.20512C9.02934 2.10757 8.98979 1.99647 8.97729 1.8808L8.85929 0.820803C8.8425 0.667434 8.77819 0.523149 8.67536 0.408127C8.57253 0.293105 8.43632 0.213101 8.28578 0.179303C7.77243 0.0641311 7.24838 0.00329615 6.72229 -0.00219727C6.19311 0.00408649 5.66599 0.064908 5.14929 0.179303C4.99863 0.212321 4.86218 0.291894 4.75926 0.406755C4.65633 0.521615 4.59214 0.665943 4.57579 0.819303L4.45728 1.8803C4.44434 1.99614 4.40445 2.10734 4.34081 2.20499C4.27716 2.30264 4.19154 2.38404 4.09079 2.44265C3.99004 2.50126 3.87696 2.53547 3.76061 2.54253C3.64427 2.54959 3.52788 2.5293 3.42079 2.4833L2.44779 2.0548C2.30743 1.99496 2.15209 1.97965 2.00276 2.01094C1.85342 2.04224 1.7173 2.11864 1.61279 2.2298C0.889671 3.00831 0.349828 3.93868 0.0327854 4.9528C-0.0121769 5.09931 -0.0105421 5.25617 0.037464 5.40171C0.0854701 5.54725 0.177479 5.6743 0.300785 5.7653L1.16329 6.4013C1.25724 6.47044 1.33362 6.5607 1.38627 6.66479C1.43891 6.76889 1.46634 6.8839 1.46634 7.00055C1.46634 7.1172 1.43891 7.23222 1.38627 7.33631C1.33362 7.44041 1.25724 7.53067 1.16329 7.5998L0.300785 8.2373C0.177072 8.32854 0.0848409 8.45604 0.0369034 8.60209C-0.011034 8.74814 -0.0122986 8.9055 0.0332853 9.0523C0.350057 10.0671 0.889915 10.9982 1.61329 11.7773C1.68209 11.8512 1.76547 11.91 1.85816 11.95C1.95085 11.99 2.05083 12.0104 2.15179 12.0098C2.25329 12.0098 2.35379 11.9888 2.44729 11.9483L3.42479 11.5188C3.5314 11.4727 3.64734 11.4523 3.76328 11.4592C3.87922 11.4661 3.99192 11.5001 4.09234 11.5584C4.19276 11.6168 4.27809 11.6979 4.34147 11.7952C4.40485 11.8925 4.44452 12.0034 4.45728 12.1188L4.57479 13.1818C4.59213 13.3326 4.65539 13.4743 4.75601 13.5879C4.85663 13.7015 4.98973 13.7809 5.13729 13.8163ZM7.88778 12.8838C7.11637 13.0426 6.3207 13.0426 5.54928 12.8838L5.45179 12.0138C5.40412 11.5882 5.20118 11.1951 4.88179 10.9098C4.63184 10.6894 4.32461 10.5443 3.99563 10.4912C3.66666 10.4381 3.32937 10.4792 3.02279 10.6098L2.21979 10.9598C1.7014 10.3669 1.30273 9.67926 1.04579 8.9348L1.75779 8.4088C1.97776 8.24671 2.15656 8.03521 2.27979 7.79133C2.40302 7.54746 2.46722 7.27804 2.46722 7.0048C2.46722 6.73156 2.40302 6.46215 2.27979 6.21827C2.15656 5.9744 1.97776 5.76289 1.75779 5.6008L1.04729 5.0758C1.30446 4.33205 1.70312 3.64509 2.22129 3.0528L3.02129 3.4028C3.24179 3.50017 3.48024 3.55025 3.72129 3.5498C4.15053 3.54846 4.56431 3.3894 4.88393 3.10287C5.20355 2.81635 5.40671 2.42235 5.45479 1.9958L5.55178 1.1223C5.93879 1.0473 6.33179 1.0073 6.72529 1.0023C7.11629 1.0073 7.50629 1.0473 7.89029 1.1223L7.98328 1.9923C8.0296 2.41912 8.23208 2.81375 8.55179 3.1003C8.80215 3.32157 9.11018 3.46722 9.44006 3.52033C9.76995 3.57343 10.1081 3.53181 10.4153 3.4003L11.2153 3.0503C11.7339 3.64266 12.1329 4.3298 12.3903 5.0738L11.6788 5.5968C11.4577 5.75833 11.2778 5.96976 11.1538 6.21389C11.0298 6.45803 10.9652 6.72798 10.9652 7.0018C10.9652 7.27562 11.0298 7.54557 11.1538 7.78971C11.2778 8.03385 11.4577 8.24528 11.6788 8.4068L12.3898 8.9318C12.1317 9.6742 11.7337 10.3602 11.2173 10.9528L10.4173 10.6028C10.1669 10.4914 9.89379 10.4408 9.62015 10.4552C9.34652 10.4696 9.08017 10.5485 8.84288 10.6855C8.60559 10.8226 8.4041 11.0138 8.25487 11.2436C8.10565 11.4734 8.01293 11.7353 7.98429 12.0078L7.88778 12.8838Z" fill="#CCCEFF"/>
</svg>
